<?xml version="1.0" encoding="UTF-8"?>
<svg id="Layer_2" data-name="Layer 2" xmlns="http://www.w3.org/2000/svg" xmlns:xlink="http://www.w3.org/1999/xlink" viewBox="0 0 346.48 139.34">
  <defs>
    <style>
      .cls-1 {
        fill: url(#linear-gradient-2);
      }

      .cls-2 {
        fill: #fff;
      }

      .cls-3 {
        fill: url(#linear-gradient-3);
      }

      .cls-4 {
        fill: url(#linear-gradient);
      }
    </style>
    <linearGradient id="linear-gradient" x1="39.23" y1="22.85" x2="39.23" y2="120.75" gradientUnits="userSpaceOnUse">
      <stop offset="0" stop-color="#3dbef5"/>
      <stop offset="1" stop-color="#106de0"/>
    </linearGradient>
    <linearGradient id="linear-gradient-2" x1="16.62" y1="-85.5" x2="85.24" y2="31.36" xlink:href="#linear-gradient"/>
    <linearGradient id="linear-gradient-3" x1="157.6" y1="120.66" x2="59.9" y2="22.96" gradientUnits="userSpaceOnUse">
      <stop offset=".06" stop-color="#fdb500"/>
      <stop offset="1" stop-color="#fd7400"/>
    </linearGradient>
  </defs>
  <g id="OBJECTS">
    <path class="cls-4" d="m56.77,59.89c-11.74,4.52-24.28,4.48-35.52.6l20.19,36.14c.11-13.4,5.34-26.64,15.43-36.57.11-.11.23-.22.34-.33h0,0c-.15.06-.29.11-.44.17Z"/>
    <g>
      <path class="cls-1" d="m115.36,19.79l1.33-.96,6.43,2.58c2.85-3.17,6.27-5.73,9.32-8.35l-10.58-8.74,2.73-1.97,14.23,5.82c3.49-2.3,6.43-3.99,8.73-4.07-2.62-2.5-6.19-4.1-10.3-4.1H15C3.56,0-3.65,12.3,1.92,22.28l6.16,11.03c23.72,4.88,66.63,9.02,113.3-9.01l-6.02-4.51Z"/>
      <path class="cls-3" d="m148.93,5.62c-.66,2.18-3.13,4.44-6.37,7.07l1.08,16.07-2.73,1.97-5.17-13.34c-3.49,2.1-7.05,4.59-11.01,6.34l.42,6.84-1.33.96-2.38-7.12c-41.37,40.65-53.52,89.09-56.94,109.42,6.45,8.01,19.41,7.3,24.69-2.15l61.12-109.39c3.19-5.71,2.19-12.18-1.39-16.67Z"/>
    </g>
  </g>
  <g id="TEXTS">
    <g>
      <path class="cls-2" d="m184.63,49.58c0,3.3-1.19,5.9-3.56,7.8-2.37,1.9-5.68,2.85-9.91,2.85-3.9,0-7.35-.73-10.35-2.2v-7.2c2.47,1.1,4.55,1.87,6.26,2.32,1.71.45,3.27.67,4.69.67,1.7,0,3-.33,3.91-.97.91-.65,1.36-1.62,1.36-2.9,0-.72-.2-1.35-.6-1.91-.4-.56-.99-1.1-1.76-1.61-.77-.52-2.35-1.34-4.74-2.47-2.23-1.05-3.91-2.06-5.02-3.02s-2.01-2.09-2.67-3.37c-.67-1.28-1-2.78-1-4.5,0-3.23,1.1-5.77,3.29-7.62,2.19-1.85,5.22-2.77,9.08-2.77,1.9,0,3.71.22,5.44.67,1.72.45,3.53,1.08,5.41,1.9l-2.5,6.02c-1.95-.8-3.56-1.36-4.84-1.67s-2.53-.47-3.76-.47c-1.47,0-2.59.34-3.37,1.02-.78.68-1.17,1.57-1.17,2.67,0,.68.16,1.28.47,1.79s.82,1,1.51,1.47c.69.47,2.33,1.33,4.91,2.56,3.42,1.63,5.76,3.27,7.02,4.91,1.27,1.64,1.9,3.65,1.9,6.04Z"/>
      <path class="cls-2" d="m193.91,24.56c0-2.48,1.38-3.72,4.15-3.72s4.15,1.24,4.15,3.72c0,1.18-.35,2.1-1.04,2.76-.69.66-1.73.99-3.11.99-2.77,0-4.15-1.25-4.15-3.75Zm7.95,35.16h-7.62v-27.94h7.62v27.94Z"/>
      <path class="cls-2" d="m238.45,59.72h-7.62v-16.32c0-2.02-.34-3.53-1.01-4.54s-1.74-1.51-3.19-1.51c-1.95,0-3.37.72-4.25,2.15-.88,1.43-1.33,3.79-1.33,7.07v13.14h-7.62v-27.94h5.82l1.02,3.57h.42c.75-1.28,1.83-2.29,3.25-3.01,1.42-.72,3.04-1.09,4.87-1.09,4.18,0,7.01,1.37,8.5,4.1h.67c.75-1.3,1.85-2.31,3.31-3.02,1.46-.72,3.1-1.07,4.93-1.07,3.17,0,5.56.81,7.18,2.44,1.62,1.62,2.44,4.23,2.44,7.81v18.22h-7.65v-16.32c0-2.02-.34-3.53-1.01-4.54s-1.74-1.51-3.19-1.51c-1.87,0-3.26.67-4.19,2s-1.39,3.45-1.39,6.35v14.02Z"/>
      <path class="cls-2" d="m282.61,60.22c-3.28,0-5.86-1.19-7.72-3.57h-.4c.27,2.33.4,3.68.4,4.05v11.32h-7.62V31.78h6.2l1.07,3.62h.35c1.78-2.77,4.42-4.15,7.92-4.15,3.3,0,5.88,1.27,7.75,3.82,1.87,2.55,2.8,6.09,2.8,10.62,0,2.98-.44,5.57-1.31,7.77s-2.12,3.87-3.74,5.02c-1.62,1.15-3.52,1.72-5.7,1.72Zm-2.25-22.87c-1.88,0-3.26.58-4.12,1.74s-1.32,3.07-1.35,5.74v.82c0,3,.45,5.15,1.34,6.45.89,1.3,2.3,1.95,4.24,1.95,3.42,0,5.12-2.82,5.12-8.45,0-2.75-.42-4.81-1.26-6.18-.84-1.38-2.16-2.06-3.96-2.06Z"/>
      <path class="cls-2" d="m310.86,59.72h-7.62V20.84h7.62v38.88Z"/>
      <path class="cls-2" d="m335.08,60.22c-4.5,0-8.01-1.24-10.55-3.72-2.53-2.48-3.8-6-3.8-10.55s1.17-8.3,3.51-10.86c2.34-2.56,5.58-3.84,9.71-3.84s7.02,1.12,9.22,3.37c2.2,2.25,3.3,5.36,3.3,9.32v3.7h-18.02c.08,2.17.72,3.86,1.92,5.07,1.2,1.22,2.88,1.82,5.05,1.82,1.68,0,3.27-.17,4.77-.52,1.5-.35,3.07-.91,4.7-1.67v5.9c-1.33.67-2.76,1.16-4.27,1.49-1.52.32-3.37.49-5.55.49Zm-1.08-23.54c-1.62,0-2.88.51-3.8,1.54-.92,1.02-1.44,2.48-1.58,4.36h10.7c-.03-1.88-.53-3.34-1.47-4.36s-2.23-1.54-3.85-1.54Z"/>
      <path class="cls-2" d="m161.43,97.14v-23.56h5v19.43h9.56v4.12h-14.55Z"/>
      <path class="cls-2" d="m198.36,88.1c0,2.93-.77,5.23-2.32,6.88s-3.7,2.48-6.46,2.48c-1.73,0-3.25-.38-4.58-1.14-1.32-.76-2.34-1.84-3.05-3.26s-1.06-3.07-1.06-4.96c0-2.94.77-5.23,2.3-6.87,1.54-1.63,3.7-2.45,6.48-2.45,1.73,0,3.25.38,4.58,1.13s2.34,1.83,3.05,3.24,1.06,3.06,1.06,4.95Zm-12.46,0c0,1.78.29,3.13.88,4.04.58.91,1.54,1.37,2.86,1.37s2.25-.45,2.83-1.36c.57-.91.86-2.26.86-4.05s-.29-3.12-.87-4.01-1.53-1.34-2.85-1.34-2.26.44-2.84,1.33c-.58.89-.87,2.23-.87,4.02Z"/>
      <path class="cls-2" d="m220.41,79.12v2.5l-2.82.73c.52.81.77,1.71.77,2.71,0,1.93-.67,3.44-2.02,4.52-1.35,1.08-3.22,1.62-5.62,1.62l-.89-.05-.72-.08c-.5.39-.76.82-.76,1.29,0,.71.9,1.06,2.71,1.06h3.06c1.98,0,3.48.42,4.52,1.27,1.04.85,1.55,2.09,1.55,3.74,0,2.11-.88,3.74-2.63,4.9-1.76,1.16-4.28,1.74-7.57,1.74-2.51,0-4.43-.44-5.76-1.31-1.33-.88-1.99-2.1-1.99-3.68,0-1.08.34-1.99,1.02-2.72.68-.73,1.67-1.25,2.98-1.56-.5-.21-.95-.57-1.32-1.06-.38-.49-.56-1.01-.56-1.55,0-.69.2-1.26.6-1.72.4-.46.97-.91,1.72-1.35-.95-.41-1.69-1.06-2.25-1.97-.55-.9-.83-1.97-.83-3.19,0-1.97.64-3.49,1.92-4.56,1.28-1.07,3.1-1.61,5.48-1.61.5,0,1.1.05,1.8.14.69.09,1.14.16,1.33.2h6.28Zm-13.91,20.56c0,.68.32,1.21.97,1.59.65.39,1.56.58,2.73.58,1.76,0,3.14-.24,4.14-.72s1.5-1.14,1.5-1.98c0-.68-.3-1.14-.89-1.4s-1.5-.39-2.74-.39h-2.55c-.9,0-1.66.21-2.26.64-.61.42-.91.99-.91,1.68Zm1.79-14.66c0,.98.22,1.75.67,2.32.45.57,1.12.85,2.04.85s1.6-.28,2.03-.85.64-1.34.64-2.32c0-2.17-.89-3.25-2.67-3.25s-2.71,1.08-2.71,3.25Z"/>
      <path class="cls-2" d="m225.48,74.46c0-1.6.89-2.4,2.67-2.4s2.67.8,2.67,2.4c0,.76-.22,1.36-.67,1.78-.45.42-1.12.64-2.01.64-1.78,0-2.67-.81-2.67-2.42Zm5.12,22.67h-4.91v-18.01h4.91v18.01Z"/>
      <path class="cls-2" d="m250.64,91.79c0,1.85-.64,3.25-1.93,4.22-1.28.97-3.2,1.45-5.76,1.45-1.31,0-2.43-.09-3.35-.27-.92-.18-1.79-.44-2.59-.78v-4.06c.91.43,1.94.79,3.09,1.08,1.14.29,2.15.43,3.02.43,1.78,0,2.67-.52,2.67-1.55,0-.39-.12-.7-.35-.94-.24-.24-.64-.52-1.22-.82-.58-.31-1.35-.66-2.32-1.07-1.39-.58-2.4-1.12-3.05-1.61-.65-.49-1.12-1.06-1.42-1.7-.3-.64-.44-1.43-.44-2.36,0-1.6.62-2.84,1.86-3.71,1.24-.88,3-1.31,5.28-1.31s4.28.47,6.33,1.42l-1.48,3.54c-.9-.39-1.75-.7-2.53-.95s-1.58-.37-2.4-.37c-1.45,0-2.18.39-2.18,1.18,0,.44.23.82.7,1.14.47.32,1.49.8,3.07,1.43,1.41.57,2.44,1.1,3.09,1.6s1.14,1.06,1.45,1.71.47,1.41.47,2.3Z"/>
      <path class="cls-2" d="m264.37,93.54c.86,0,1.89-.19,3.09-.56v3.66c-1.22.55-2.73.82-4.51.82-1.97,0-3.4-.5-4.29-1.49-.9-.99-1.35-2.48-1.35-4.47v-8.68h-2.35v-2.08l2.71-1.64,1.42-3.8h3.14v3.83h5.04v3.69h-5.04v8.68c0,.7.2,1.21.59,1.55.39.33.91.5,1.55.5Z"/>
      <path class="cls-2" d="m273.21,74.46c0-1.6.89-2.4,2.67-2.4s2.67.8,2.67,2.4c0,.76-.22,1.36-.67,1.78-.45.42-1.12.64-2.01.64-1.78,0-2.67-.81-2.67-2.42Zm5.12,22.67h-4.91v-18.01h4.91v18.01Z"/>
      <path class="cls-2" d="m293.11,97.46c-5.61,0-8.41-3.08-8.41-9.23,0-3.06.76-5.4,2.29-7.02,1.53-1.62,3.71-2.43,6.56-2.43,2.08,0,3.95.41,5.61,1.22l-1.45,3.8c-.77-.31-1.49-.57-2.16-.76-.67-.2-1.33-.3-2-.3-2.56,0-3.83,1.82-3.83,5.45s1.28,5.29,3.83,5.29c.95,0,1.82-.13,2.63-.38.81-.25,1.61-.65,2.42-1.18v4.21c-.79.51-1.6.85-2.41,1.05-.81.19-1.83.29-3.07.29Z"/>
    </g>
  </g>
</svg>